<?xml version="1.0" encoding="UTF-8"?>
<svg width="1842px" height="101px" viewBox="0 0 1842 101" version="1.1" xmlns="http://www.w3.org/2000/svg" xmlns:xlink="http://www.w3.org/1999/xlink">
    <title>top@1x</title>
    <defs>
        <radialGradient cx="50%" cy="0%" fx="50%" fy="0%" r="91.2193047%" gradientTransform="translate(0.500000,0.000000),scale(0.089113,1.000000),rotate(90.000000),scale(1.000000,3.504549),translate(-0.500000,-0.000000)" id="radialGradient-1">
            <stop stop-color="#2F4166" offset="0%"></stop>
            <stop stop-color="#0C1A32" offset="100%"></stop>
        </radialGradient>
    </defs>
    <g id="页面-1" stroke="none" stroke-width="1" fill="none" fill-rule="evenodd">
        <g id="门户" transform="translate(-39.000000, 4.000000)">
            <g id="top" transform="translate(40.000000, -2.000000)">
                <g id="2" transform="translate(376.000000, 0.000000)">
                    <path d="M307.5,97 L242,37 L79,37 L0,0 L1088.5,0 L1009.5,37 L846.5,37 L781,97 L307.5,97 Z" id="形状结合" stroke="#00D5FF" stroke-width="4" fill="url(#radialGradient-1)"></path>
                    <g id="编组" transform="translate(91.000000, 13.000000)" fill="#22C8FC" fill-rule="nonzero">
                        <g id="组_128">
                            <circle id="椭圆_14" opacity="0.8" cx="69" cy="6" r="6"></circle>
                            <circle id="椭圆_14_副本" opacity="0.6" cx="47" cy="6" r="5"></circle>
                            <circle id="椭圆_14_副本_2" opacity="0.4" cx="25" cy="6" r="4"></circle>
                            <circle id="椭圆_14_副本_3" opacity="0.4" cx="3" cy="6" r="3"></circle>
                        </g>
                        <g id="组_127" transform="translate(831.000000, 0.000000)">
                            <circle id="椭圆_14_副本_4" opacity="0.8" cx="6" cy="6" r="6"></circle>
                            <circle id="椭圆_14_副本_4-2" opacity="0.6" cx="28" cy="6" r="5"></circle>
                            <circle id="椭圆_14_副本_4-3" opacity="0.4" cx="50" cy="6" r="4"></circle>
                            <circle id="椭圆_14_副本_4-4" opacity="0.4" cx="72" cy="6" r="3"></circle>
                        </g>
                    </g>
                </g>
                <g id="组_129" transform="translate(0.000000, 9.000000)">
                    <polygon id="形状_31" stroke="#00CCFF" fill-opacity="0" fill="#FFFFFF" opacity="0.79" stroke-linejoin="round" points="0 0 335 0 404 30 0 30"></polygon>
                    <polygon id="矩形_4" fill="#00CCFF" points="319 9 333 9 368 23 354 23"></polygon>
                    <polygon id="矩形_4_拷贝" fill="#00CCFF" opacity="0.8" points="289 9 303 9 338 23 324 23"></polygon>
                    <polygon id="矩形_4_拷贝_2" fill="#00CCFF" opacity="0.6" points="259 9 273 9 308 23 294 23"></polygon>
                    <circle id="椭圆_15" fill="#00CCFF" fill-rule="nonzero" opacity="0.6" cx="7" cy="7" r="2"></circle>
                    <circle id="椭圆_15_拷贝" fill="#00CCFF" fill-rule="nonzero" opacity="0.6" cx="7" cy="23" r="2"></circle>
                </g>
                <g id="1" transform="translate(1436.000000, 9.000000)">
                    <polygon id="形状_31-2" stroke="#00CCFF" fill-opacity="0" fill="#FFFFFF" opacity="0.79" stroke-linejoin="round" points="404 0 69 0 0 30 404 30"></polygon>
                    <polygon id="矩形_4-2" fill="#00CCFF" points="85 9 71 9 36 23 50 23"></polygon>
                    <polygon id="矩形_4_拷贝-2" fill="#00CCFF" opacity="0.8" points="115 9 101 9 66 23 80 23"></polygon>
                    <polygon id="矩形_4_拷贝_2-2" fill="#00CCFF" opacity="0.6" points="145 9 131 9 96 23 110 23"></polygon>
                    <circle id="椭圆_15-2" fill="#00CCFF" fill-rule="nonzero" opacity="0.6" cx="397" cy="7" r="2"></circle>
                    <circle id="椭圆_15_拷贝-2" fill="#00CCFF" fill-rule="nonzero" opacity="0.6" cx="397" cy="23" r="2"></circle>
                </g>
            </g>
        </g>
    </g>
</svg>