<?xml version="1.0" encoding="UTF-8"?>
<svg width="36px" height="18px" viewBox="0 0 36 18" version="1.1" xmlns="http://www.w3.org/2000/svg" xmlns:xlink="http://www.w3.org/1999/xlink">
    <title>标签@1x</title>
    <defs>
        <linearGradient x1="0%" y1="50%" x2="100%" y2="50%" id="linearGradient-1">
            <stop stop-color="#09BBFE" offset="0%"></stop>
            <stop stop-color="#5A42EC" offset="100%"></stop>
        </linearGradient>
    </defs>
    <g id="页面-1" stroke="none" stroke-width="1" fill="none" fill-rule="evenodd">
        <g id="门户" transform="translate(-185.000000, -505.000000)">
            <g id="产品" transform="translate(185.000000, 173.000000)">
                <g id="标签" transform="translate(0.000000, 332.000000)">
                    <path d="M3,0 L29,0 C30.6568542,0 32,1.34314575 32,3 L32,5 C32,6.531 36,9 36,9 C36,9 32,11.392 32,13 L32,15 C32,16.6568542 30.6568542,18 29,18 L3,18 C1.34314575,18 0,16.6568542 0,15 L0,3 C0,1.34314575 1.34314575,0 3,0 Z" id="圆角矩形_2-2" fill="url(#linearGradient-1)"></path>
                    <text id="组合-2" fill="#FEFFFF" fill-rule="nonzero" font-family="PingFangSC-Regular, PingFang SC" font-size="12" font-weight="normal">
                        <tspan x="4" y="13">组合</tspan>
                    </text>
                </g>
            </g>
        </g>
    </g>
</svg>