<?xml version="1.0" encoding="UTF-8"?>
<svg width="454px" height="20px" viewBox="0 0 454 20" version="1.1" xmlns="http://www.w3.org/2000/svg" xmlns:xlink="http://www.w3.org/1999/xlink">
    <title>弹框边@1x</title>
    <g id="弹框边" stroke="none" stroke-width="1" fill="none" fill-rule="evenodd">
        <path d="M454,0 L454,11 L443,20 L381,20 L365,12 L267,12 L258,16 L194,16 L187,12 L79,12 L62,20 L11,20 L0,10 L0,1 L6,1 L12,9 L441,9 L447,0 L454,0 Z M440,16 L436,16 L440,12 L444,12 L440,16 Z M432,16 L428,16 L432,12 L436,12 L432,16 Z M425,16 L421,16 L425,12 L429,12 L425,16 Z M11,12 L15,16 L19,16 L15,12 L11,12 M22,16 L26,16 L22,12 L18,12 L22,16 Z M30,16 L34,16 L30,12 L26,12 L30,16 Z" id="形状_938_拷贝" fill="#00D5FF"></path>
    </g>
</svg>