<?xml version="1.0" encoding="UTF-8"?>
<svg width="36px" height="18px" viewBox="0 0 36 18" version="1.1" xmlns="http://www.w3.org/2000/svg" xmlns:xlink="http://www.w3.org/1999/xlink">
    <title>标签右@1x</title>
    <defs>
        <linearGradient x1="0%" y1="50%" x2="100%" y2="50%" id="linearGradient-1">
            <stop stop-color="#5A42EC" offset="0%"></stop>
            <stop stop-color="#09BBFE" offset="100%"></stop>
        </linearGradient>
    </defs>
    <g id="页面-1" stroke="none" stroke-width="1" fill="none" fill-rule="evenodd">
        <g id="门户" transform="translate(-1640.000000, -725.000000)">
            <g id="产品" transform="translate(185.000000, 173.000000)">
                <g id="标签右" transform="translate(1455.000000, 552.000000)">
                    <path d="M33,0 L7,0 C5.34314575,0 4,1.34314575 4,3 L4,5 C4,6.531 0,9 0,9 C0,9 4,11.392 4,13 L4,15 C4,16.6568542 5.34314575,18 7,18 L33,18 C34.6568542,18 36,16.6568542 36,15 L36,3 C36,1.34314575 34.6568542,0 33,0 Z" id="圆角矩形_2-7" fill="url(#linearGradient-1)"></path>
                    <text id="组合-7" fill="#FEFFFF" fill-rule="nonzero" font-family="PingFangSC-Regular, PingFang SC" font-size="12" font-weight="normal">
                        <tspan x="8" y="13">组合</tspan>
                    </text>
                </g>
            </g>
        </g>
    </g>
</svg>